<?xml version="1.0" encoding="UTF-8"?>
<svg id="_Слой_1" data-name="Слой_1" xmlns="http://www.w3.org/2000/svg" version="1.1" viewBox="0 0 595.28 841.89">
  <!-- Generator: Adobe Illustrator 29.7.1, SVG Export Plug-In . SVG Version: 2.1.1 Build 8)  -->
  <defs>
    <style>
      .st0 {
        fill: #292816;
      }
    </style>
  </defs>
  <path class="st0" d="M503.14,420.6c-.31-2.7-7.1-16.07-8.85-19.15-2.87-5.04-3.72-5.88-9.63-7.18-9.1-2-19.5-1.15-28.67-3.99-6.16.6-14.79,24.62-14.51,30.78l-10.19-2.85c4.56-13.91,8.56-28.66,23.77-33.53,1-.32,1.69.69,1.37-1.4-5.19-4.48-11.05-8.27-16.31-12.64-6.29-5.23-15.1-11.98-20.56-17.72-2.16-2.26-7.3-10.85-9.34-11.2h-14.47l9.68-4.79c6.26-5.4,1.6-11.08,1.5-17.19-.33-20.12,10.77-53.62,15.63-73.97,2.66-11.15,4.37-15.07-.5-26.03-1.3-2.92-6.27-9.49-6.53-11.23-.57-3.78,3.55-8.28,2.63-12.41-4.5.06-9.03-.1-13.53,0-3.21.08-5.78,2.51-8.93-.43-1.75-1.63-3.4-7.29-5.14-9.79-1.89-2.72-5.37-5.65-7.35-8.52-6.7-9.7-13.14-23.61-13.61-35.41-.77-.83-13.34,7-15.89,7.91-6.57,2.34-16.75,3.88-23.74,4.27-13.23.74-32.02-3.56-43.46,1.36-8.7,3.74-19.85,15.57-25.04,23.51-2.52,3.85-3.44,8.3-6.67,12-4.51,5.15-11.54,6.83-16.84,11.16-5.96,4.86-10.39,12.59-16.3,18.24-4.88,4.66-15.4,10.94-18.67,15.92-3.49,5.31,9.06,8.82,7.9,15.8l-11.66-10.25c-1.52,1.14-1.31,1.21-1,2.82.89,4.61,2.96,10.02,3.14,14.72.06,1.5.07,2.55-1.66,2.98-1.02-12.62-8.13-23.85-12.59-35.5-4.75-12.41-8.79-25.1-14.03-37.32.74,13.54-3.82,22.33-14.03,30.78-2.36,1.95-10,7.99-12.62,6.15l-6.39-9.21,4.11-9.03c3.28-.2-1.1,3.54,1.35,5.17,4.92,3.28,19.94-9.32,22.29-14.21,3.13-6.49.92-8.1,1.01-13.84.05-3.35,1.65-6.92,1.93-10.29.84-10.24-2.7-18.28-5.46-27.82,22.21-16,43.26-35.06,56.25-59.57,4.08-7.69,12.96-25.69,8.77-33.76-5.47-10.54-19.93,14.93-26.73,3.38l-22.48-33.54c-5.73-4.55-17.18,3.95-22.4,7.63-9.91,6.99-36.45,32.24-38.3,43.85-.42,2.64-.29,4.99.8,7.49,2.4,5.5,16.75,19.75,21.51,26.1,1.03,1.38,4.36,5.23,4.37,6.49-2.73,4.44-3.08,11.54-5.39,15.75-2.2,4.02-8.78,6.62-10.36,10.18-1.62,3.63-2.63,12.19-3.77,16.77-.52,2.07-2.14,3.66-2.49,5.91-.48,2.98-.46,13.57.45,16.24,2.16,6.34,17.1,17.98,17.99,22.2-1.35,9.42-10.11,17.49-8.01,27.58,1.53,7.34,14.79,31.7,19.04,39.77,5.14,9.76,15.67,31.85,25.52,36.09,15.39,6.63,39.39-11.69,51.69-20.29,17.17-12,33.67-25.19,50.12-38.1.4,1.75-.96,2.22-1.85,3.27-8.93,10.52-23.76,19.84-31.2,29.49-3.61,4.68-4.77,10.52-7.63,15.71-6.71,12.19-19.62,23.79-27.85,35.64-27.59,39.7-36.16,81.96-47.64,127.87-3.94,15.76-11.89,35.33-9.89,51.77,1.95,15.97,30.4,25.3,44.24,23.65l1.12-.74c2.02-2.89-1.19-24.35-1.5-29.44-.06-1.02-.6-3.54.96-3.29,7.41,38.89,12.81,78.34,12.11,118.13,6.05,56.35,11.92,114.72,25.57,169.54,1.59,6.38,2.04,13,2.9,19.51,6.89,3.73,14.79,2.62,22.3,2.8l2.96-4.69c16.44,12.95,51.96,14.06,69.89,4.52,1.55-.83,2.61-3.03,4.08-3.45,1.79-.52,8.72.94,11.97.82,4.35-.16,20.14-2.54,23.22-4.78,3.88-2.82.18-8.91-2.86-10.98-5.6-3.82-16.69-2.27-24.03-4.92-7.39-2.67-25.55-15.94-26.63-23.78-2.31-16.68-2.94-33.39-9.43-49.39,1.73-31.05-2.28-64.5-.03-95.26.9-12.32,4.86-25.64,5.63-38.25.9-14.82.7-28.73,1.86-43.88,2.69-34.85,1.37-68.7,19.96-99.54l20.68-68.95,15.83,16.82c16.65,15.77,35.35,28.84,53.75,42.44,2.38,1.82,4.17-1.21,5.97-1.31,1.13-.06,2.52.91,3.81.87,4.85-.12,6.97-5.64,9.79-8.94l1.35-.44,13.46,5.74c.32,1.5,0,3.08.55,4.57,5.47,14.75-1.32,43.64-3.22,60.2-9.43,82.45-19,165.17-28.97,247.37-2.71,22.33-7.94,46.99-9.32,69.12-.1,1.54-.46,4.72.87,5.63l4.61.28,30.11-216.81c6.92-49.85,12.56-101.73,20.64-151.13.29-1.77,1.53-3.49,1.67-5.35,3.31-1.07,2.36,5.17,2.79,5.6,3.83.53,4.93-3.33,7-5.6l1.41,4.66,1.89-.43c3.91-5.77,9.21-14.55,8.39-21.53ZM199.13,73.73l6.6-12.05c2.02,4.23,6.85,9.76,6.84,14.46-.01,8.85-16.03,28.36-22.56,34.68-5.25,5.09-21.28,16.83-28.33,16.86-4.19.02-8.42-9.12-8.67-12.77,19.33-7.67,35.57-23.33,46.12-41.18ZM131.51,74.73c13.94-11.22,29.62-23.18,39.23-38.26,1.68-.25.8,2,.53,2.86-1.16,3.73-5.77,9.48-8.4,12.61-7.79,9.26-19.89,18.89-31.35,22.79ZM159.52,137.29c-2.5,7.58-12.71.68-18.67,3.72,3.68-7.54,11.77-5.81,18.67-3.72ZM145.55,148.94c2.45.64,16.41,8.56,13.97,11.69-4.51-2.54-9.56-7.77-14.44-9.39-3.79-1.26-5.51.59-8.89-.4,2.17-3.15,6.04-2.76,9.36-1.89ZM135.25,160.63c9.98-.8,18.64.04,25.2,8.39-4.65-.32-7.48-4.09-12.08-5.18-3.5-.84-8.02-.68-11.72-1.37-1.52-.28-1.61.61-1.4-1.83ZM137.12,176.49c-.91-5.5,10.68-5.29,14.27-4.47,1.92.44,3.25,2.45,5.32,2.63l-.49,1.86c-2.34,1.68-6.53-1.65-9.28-1.72-1.87-.05-9.07,2.49-9.83,1.71ZM166.07,494.84c6.09-18.67,23.05-31.87,37.42-44.26l66.21-48.15c-30.09,35.68-74.69,55.54-103.63,92.41ZM279.47,729.19c-6.05-36.85-12.96-82.63-10.75-120.03,2.57-43.42,5.61-87.32,10.3-130.67.86-7.98-.15-13.31,2.72-21.6.49-1.43-.84-2.68,1.96-2.19-.67,5.35-1.71,11.92-1.9,17.23-.75,20.52-1.17,41.1-1.87,61.61-1.93,56.96-6.78,118-2.75,174.6.92,12.9,6.49,23.39,8.38,35.95l-6.09-14.91ZM369.61,173.7c1.79-.44,1.8.65,2.63,1.57,1.85,2.03,9.94,12.12,10.3,14.05.77,4.19-5.49,13.47-3.58,18.92l14.26-1.69c3.47,3.19,7.32,6.49,7.12,11.35-.61,14.9-17.81,52.65-29.79,61.77-.93.71-1.18,1.82-2.8,1.39l1.9-47.18c.15-9.56-2.97-21.7-2.92-30.76.05-8.9,3.39-20.07,2.89-29.41ZM333.18,286.18c.92-10.68,1.6-23.75,1.92-34.49.55-18.93-.55-37.69-1.91-56.52h14.01c.85-4.44-6.49-9.06-6.47-12.6l11.13-23.8-4.52,23.85,9.13,14.99-1.33,2.23h-14.47c-.81,19.53,1.07,39.88.04,59.32-.78,14.66-3.67,35.04-7.77,49.17-.84,2.9-2.35,7.9-4.39,10.07.93-10.78,3.72-21.43,4.65-32.22ZM311.75,183.54l-1.91,8.83c-.43-4.24.6-9.45,0-13.54-.36-2.46-3.9-11.94-5.24-14.36-1.39-2.52-3.38-4.35-5.03-6.63,10.85,3.33,12.92,15.82,12.18,25.7ZM335.05,804.78c-4.9-1.8-9.22-4.86-14.01-6.99-2.33-1.03-4.97-1.16-7.17-2.16-10.49-4.77-18.96-11.47-24.56-21.64l20.85,15.08c8.22,5.24,22.77,4.09,24.89,15.71ZM315.12,385.29l-16.01,15.23-9.4-14.05c9.28-11.83,20.33-22.19,28.75-34.72,16.13-24.02,24.83-52.07,35.01-78.89l11.46-42.21c1.39,19.36,1.3,38.7-1.32,57.94-9.16,13.42-15.02,28.54-22.46,42.9-9.16,17.67-20.76,34.62-26.03,53.8ZM350.44,350.12c-9.66,17.41-16.15,36.59-27.06,53.21-.8.03-2.83-6.93-3.05-8.14-4.12-23.13,9.83-37.12,19.74-56.37,6.31-12.25,12.41-28.13,19.42-39.4,3.01-4.84,7.92-9.13,11.41-13.8,7.12-9.55,13.99-19.29,21.1-28.84-4.36,25.9-15.85,50.02-28.59,72.69-3.96,7.04-9.03,13.54-12.97,20.64ZM371.45,338l-1.84-1.38,21.02-37.8,17.24-40.16c-4.69,29.3-19,55.73-36.42,79.34ZM483.39,433.11c-6.81,2.58-5.1,11-6.45,16.87l-7.43.06c-.91-5.15,1.21-10.57,1.01-15.42-.11-2.67-4.88-14.15,1.17-12.45,1.08.3,13.39,8.54,11.7,10.94ZM490.06,425.76c-.98-7.19-9.3-9.44-13.08-14.93,3.39-.31,9.03,2.66,11.22,5.11,1.5,1.68,5.74,8.69,1.86,9.82Z"/>
  <path class="st0" d="M399.49,191.43c.62.7,14.03-7.94,16.13-8.6,9.82-3.09,17.61,10.86,28.7,6.28,2.16-1.07,2.97-7.27,4.25-9.75.82-1.59,2.73-4.86,3.71-6.55,1.71-2.93,6.92-2.76,5.13-9.34,19.85.96,3.45-19.15,7.91-28.96.62-1.36,3.08-2.4,3.7-3.77,1.9-4.17-.24-19.69.45-25.69.59-5.08,3.15-6.92,1.46-13.53-3.09-12.05-32.49-25.15-43.92-26.1-20.2-1.67-40.86,12.86-44.26,33.2-1.27,7.58-.21,16.7-1.08,24.12-.47,3.99-4.18,11.86-4.18,15.01,0,1.84,4.57,11.15,5.77,13.42,6.92,13.05,18.84,23.89,16.23,40.25Z"/>
</svg>